<svg xmlns="http://www.w3.org/2000/svg" width="162" height="77" fill="none"><path fill="#fff" stroke="#F9FAFB" d="M31.341 74.058h.502V1.504h-2.11l-.083.031L1.833 11.771l-.329.12v11.091l.664-.226 16.82-5.748v57.05h12.353zm27.465-35.914l-.047.435.425.105 9.501 2.35.266.067.199-.188c1.737-1.64 3.312-2.702 4.727-3.225l.009-.003c1.427-.559 3.19-.847 5.302-.847 3.832 0 6.787 1.23 8.93 3.65l.002.003c2.148 2.398 3.25 5.694 3.25 9.95 0 4.432-1.011 7.869-2.977 10.365l-.003.004c-1.918 2.475-4.604 3.723-8.125 3.723-3.165 0-5.681-.883-7.596-2.611-1.915-1.762-3.116-4.303-3.562-7.678l-.058-.436H56.57l.031.531c.367 6.197 2.74 11.224 7.126 15.04l.003.003c4.414 3.78 9.955 5.655 16.585 5.655 7.385 0 13.255-2.173 17.549-6.567h.001c4.288-4.423 6.41-10.337 6.41-17.687 0-7.432-1.917-13.404-5.804-17.861-3.867-4.472-9.29-6.686-16.197-6.686-3.872 0-7.394.81-10.557 2.44l1.797-15.64h28.459V1.75H62.724l-.049.448-3.869 35.947zm101.69-3.816v-.501h-18.61V13.993h-12.561v19.834h-18.708v11.875h18.708v21.205h12.561V45.702h18.61V34.328z"/><path fill="#fff" stroke="#F9FAFB" d="M32.344 75.06h.502V.502h-3.292l-.083.031L.83 11.072l-.329.12v13.192l.664-.226 16.82-5.748v56.651h14.359zM19.991 16.307v-.701l-.664.227-16.82 5.748V12.59L29.912 2.507h.928v70.548H19.99V16.306zm37.724 22.6l-.047.436.425.105 10.883 2.693.266.066.199-.188.398-.376c1.684-1.59 3.146-2.555 4.385-3.013l.01-.003.008-.004.01-.003c1.279-.5 2.91-.778 4.936-.778 3.596 0 6.258 1.142 8.178 3.312l.002.002.004.005c1.942 2.167 2.996 5.2 2.996 9.28 0 4.288-.979 7.48-2.763 9.746l-.003.003-.004.006c-1.707 2.202-4.085 3.335-7.333 3.335-2.967 0-5.226-.822-6.92-2.35-1.698-1.564-2.82-3.863-3.244-7.068l-.115-.871-.057-.436H55.505l.031.531.063 1.062c.381 6.444 2.863 11.73 7.469 15.738l.003.003.006.005c4.623 3.958 10.406 5.896 17.237 5.896 7.592 0 13.744-2.24 18.266-6.869l.002-.001.002-.003c4.506-4.646 6.693-10.83 6.693-18.384 0-7.605-1.965-13.835-6.05-18.52-4.093-4.731-9.816-7.03-16.954-7.03-3.358 0-6.483.59-9.357 1.781l1.492-12.974h28.567V.746H61.823l-.049.448-4.059 37.713zm5.91-36.154h37.344v9.282h-28.35l-.05.444-1.96 17.043-.113.986.861-.494a20.37 20.37 0 0 1 1.05-.563c2.95-1.471 6.235-2.211 9.866-2.211 6.675 0 11.798 2.128 15.44 6.34v.002c3.688 4.228 5.558 9.943 5.558 17.202 0 7.146-2.057 12.79-6.126 16.987-4.065 4.16-9.654 6.264-16.83 6.264-6.429 0-11.727-1.813-15.932-5.412-3.936-3.425-6.171-7.867-6.705-13.358-.014-.15-.028-.301-.04-.453h10.537c.513 3.338 1.773 5.971 3.817 7.85l.004.003c2.133 1.928 4.906 2.872 8.27 2.872 3.792 0 6.786-1.363 8.916-4.11 2.147-2.728 3.192-6.408 3.192-10.985 0-4.43-1.15-7.989-3.506-10.618-2.364-2.672-5.612-3.988-9.68-3.988-2.195 0-4.088.298-5.663.914-1.529.566-3.15 1.66-4.863 3.247l-8.812-2.18 3.774-35.064zm97.874 30.573v-.501h-18.61V12.99h-14.567v19.834h-18.708v13.881h18.708V67.91h14.567V46.705h18.61v-13.38zm-31.673 1.505h.502V14.996h10.555V34.83h18.61v9.869h-18.61v21.205h-10.555V44.7H111.62v-9.87h18.206z"/><path fill="#55AD62" d="M66.465 59.514h-7.111v-34.35l-10.49 3.585v-6.023l16.69-6.142h.91v42.93zM83.243 38.3l2.321-21.569h22.979v6.17H91.5l-1.175 10.226c1.978-1.136 4.211-1.704 6.7-1.704 4.074 0 7.237 1.303 9.49 3.908 2.272 2.606 3.409 6.112 3.409 10.52 0 4.349-1.254 7.816-3.761 10.402-2.508 2.566-5.946 3.85-10.314 3.85-3.918 0-7.17-1.108-9.756-3.321-2.566-2.233-3.957-5.172-4.172-8.815h6.905c.274 2.076 1.019 3.672 2.233 4.79 1.215 1.096 2.801 1.645 4.76 1.645 2.194 0 3.899-.784 5.113-2.351 1.234-1.567 1.851-3.703 1.851-6.406 0-2.605-.675-4.662-2.027-6.17-1.352-1.529-3.213-2.293-5.583-2.293-1.293 0-2.39.177-3.291.53-.901.332-1.88.998-2.939 1.998l-5.7-1.41zm49.248-2.322h11.166V42.5h-11.166v12.723h-6.935V42.501h-11.225v-6.523h11.225v-11.9h6.935v11.9z"/></svg>