<svg xmlns="http://www.w3.org/2000/svg" xmlns:xlink="http://www.w3.org/1999/xlink" width="430" height="362" viewBox="0 0 430 362">
    <defs>
        <path id="a" d="M0 .42h65.734v65.734H0z"/>
        <path id="c" d="M0 252.994h429.166V.859H0z"/>
        <path id="e" d="M6.889.83A6.63 6.63 0 0 0 .26 7.458v21.686a6.629 6.629 0 0 0 6.628 6.63h33.586a6.628 6.628 0 0 0 6.627-6.63V7.458A6.629 6.629 0 0 0 40.475.83H6.889z"/>
        <path id="g" d="M6.889.83A6.63 6.63 0 0 0 .26 7.458v21.686a6.629 6.629 0 0 0 6.628 6.63h33.586a6.628 6.628 0 0 0 6.627-6.63V7.458A6.629 6.629 0 0 0 40.475.83H6.889z"/>
        <path id="i" d="M6.889.83A6.63 6.63 0 0 0 .26 7.458v21.686a6.629 6.629 0 0 0 6.628 6.63h33.586a6.628 6.628 0 0 0 6.627-6.63V7.458A6.629 6.629 0 0 0 40.475.83H6.889z"/>
        <path id="k" d="M6.889.83A6.63 6.63 0 0 0 .26 7.458v21.686a6.629 6.629 0 0 0 6.628 6.63h33.586a6.628 6.628 0 0 0 6.627-6.63V7.458A6.629 6.629 0 0 0 40.475.83H6.889z"/>
        <path id="m" d="M21.243 9.102S19.31.412 10.303.412C1.29.412-1.608 9.423.97 16.181c2.574 6.757 16.089 17.054 20.273 19.307 4.182-2.253 17.697-12.55 20.272-19.307C44.09 9.423 41.195.412 32.183.412c-9.01 0-10.94 8.69-10.94 8.69"/>
        <path id="o" d="M21.243 9.102S19.31.412 10.303.412C1.29.412-1.608 9.423.97 16.181c2.574 6.757 16.089 17.054 20.273 19.307 4.182-2.253 17.697-12.55 20.272-19.307C44.09 9.423 41.195.412 32.183.412c-9.01 0-10.94 8.69-10.94 8.69"/>
        <path id="q" d="M0 252.994h429.166V.859H0z"/>
        <path id="s" d="M5.087.67C1.427.67.785 3.84.693 5.435v19.047h.003l-.003.048v.772c.074 1.566.676 4.843 4.396 4.843h39.232c3.66 0 4.301-3.17 4.394-4.766V6.332h-.003l.003-.047v-.772C48.64 3.947 48.04.67 44.318.67"/>
        <path id="v" d="M5 207.373h170a5 5 0 0 0 5-5V5a5 5 0 0 0-5-5H5a5 5 0 0 0-5 5v197.373a5 5 0 0 0 5 5z"/>
        <filter id="u" width="118.3%" height="115.9%" x="-9.2%" y="-6.5%" filterUnits="objectBoundingBox">
            <feOffset dy="3" in="SourceAlpha" result="shadowOffsetOuter1"/>
            <feGaussianBlur in="shadowOffsetOuter1" result="shadowBlurOuter1" stdDeviation="5"/>
            <feColorMatrix in="shadowBlurOuter1" values="0 0 0 0 0.215686275 0 0 0 0 0.274509804 0 0 0 0 0.37254902 0 0 0 0.15 0"/>
        </filter>
    </defs>
    <g fill="none" fill-rule="evenodd">
        <path fill="#EBEBEB" d="M333.532 98.556l-.87-.767-1.323 1.5.871.768zM335.906 95.864l-.87-.767-1.324 1.5.871.768zM338.271 93.18l-.87-.766-1.323 1.5.87.768zM326.404 106.642l-.87-.767-1.324 1.5.871.768zM328.777 103.95l-.87-.767-1.323 1.5.87.768zM331.143 101.267l-.87-.767-1.324 1.5.87.768zM319.275 114.728l-.87-.767-1.323 1.5.87.768zM321.649 112.036l-.87-.767-1.324 1.5.87.768zM324.014 109.352l-.87-.767-1.323 1.501.87.767zM312.147 122.814l-.87-.767-1.324 1.5.87.768zM314.52 120.122l-.871-.767-1.322 1.5.87.768zM316.886 117.439l-.871-.767-1.323 1.5.87.768zM305.018 130.9l-.871-.767-1.322 1.5.87.768zM307.39 128.208l-.87-.767-1.322 1.5.87.768zM309.757 125.525l-.871-.767-1.322 1.5.87.768zM297.889 138.986l-.87-.767-1.323 1.5.87.768zM300.262 136.294l-.87-.767-1.323 1.5.87.768zM302.627 133.61l-.87-.766-1.322 1.5.87.768zM290.76 147.072l-.87-.767-1.323 1.5.87.768zM293.133 144.38l-.87-.767-1.322 1.5.87.768zM295.5 141.697l-.871-.767-1.323 1.5.87.768zM283.631 155.158l-.87-.767-1.322 1.501.87.767zM286.005 152.466l-.87-.767-1.324 1.501.871.767zM288.37 149.783l-.87-.767-1.323 1.5.871.768zM276.503 163.244l-.87-.767-1.323 1.501.87.767zM278.876 160.552l-.87-.767-1.323 1.5.87.768zM281.242 157.869l-.87-.767-1.324 1.5.87.768zM269.374 171.33l-.87-.767-1.323 1.5.87.768zM271.747 168.638l-.87-.767-1.323 1.5.87.768zM274.113 165.955l-.87-.767-1.323 1.5.87.768zM262.245 179.416l-.87-.766-1.323 1.5.87.768zM264.619 176.724l-.87-.767-1.324 1.5.87.768zM266.984 174.041l-.87-.767-1.323 1.501.87.767zM50.478 220.866h2v-1.16h-2zM46.889 220.866h2v-1.16h-2zM43.311 220.866h2v-1.16h-2zM61.257 220.866h2v-1.16h-2zM57.67 220.866h2v-1.16h-2zM54.091 220.866h2.001v-1.16h-2zM72.037 220.866h2v-1.16h-2zM68.449 220.866h2v-1.16h-2zM64.871 220.866h2v-1.16h-2zM82.817 220.866h2.001v-1.16h-2zM79.23 220.866h2v-1.16h-2zM75.651 220.866h2.001v-1.16h-2zM93.597 220.866h2v-1.16h-2zM90.01 220.866h2v-1.16h-2zM86.432 220.866h2v-1.16h-2zM104.377 220.866h2.001v-1.16h-2zM100.788 220.866h2v-1.16h-2zM97.211 220.866h2.001v-1.16h-2zM115.157 220.866h2v-1.16h-2zM111.568 220.866h2.001v-1.16h-2zM107.992 220.866h2v-1.16h-2zM125.937 220.866h2.001v-1.16h-2zM122.348 220.866h2v-1.16h-2zM118.771 220.866h2v-1.16h-2zM136.718 220.866h2v-1.16h-2zM133.128 220.866h2.001v-1.16h-2zM129.552 220.866h2v-1.16h-2zM147.497 220.866h2v-1.16h-2zM143.909 220.866h2v-1.16h-2zM140.332 220.866h2v-1.16h-2zM158.278 220.866h2v-1.16h-2zM154.688 220.866h2.001v-1.16h-2zM151.111 220.866h2.001v-1.16h-2zM93.18 98.01l-.87.767 1.323 1.501.87-.767zM90.806 95.318l-.87.767 1.323 1.5.87-.766zM88.441 92.635l-.87.767 1.323 1.501.87-.767zM100.309 106.096l-.87.767 1.323 1.501.87-.767zM97.935 103.404l-.87.767 1.323 1.501.87-.767zM95.57 100.721l-.87.767 1.323 1.501.87-.767zM107.438 114.183l-.87.767 1.322 1.5.87-.767zM105.064 111.49l-.87.768 1.324 1.5.87-.766zM102.698 108.808l-.87.767 1.324 1.5.87-.766zM114.566 122.269l-.87.767 1.323 1.5.87-.766zM112.193 119.577l-.87.767 1.324 1.5.87-.766zM109.827 116.894l-.87.767 1.324 1.5.87-.766zM121.695 130.355l-.87.767 1.324 1.501.87-.767zM119.322 127.663l-.87.767 1.324 1.501.869-.767zM116.957 124.98l-.871.767 1.324 1.501.87-.767zM128.824 138.441l-.87.768 1.324 1.5.87-.767zM126.451 135.75l-.87.767 1.324 1.5.869-.766zM124.086 133.066l-.871.767 1.324 1.501.87-.767zM135.953 146.528l-.87.767 1.324 1.5.87-.766zM133.58 143.836l-.87.767 1.324 1.5.869-.766zM131.215 141.153l-.871.767 1.324 1.5.87-.766zM143.082 154.614l-.87.767 1.324 1.501.869-.767zM140.709 151.922l-.87.767 1.323 1.501.87-.767zM138.344 149.239l-.87.767 1.323 1.501.869-.767zM150.212 162.7l-.871.767 1.324 1.501.869-.767zM147.838 160.009l-.87.767 1.323 1.5.87-.766zM145.473 157.325l-.87.767 1.323 1.501.869-.767zM157.34 170.787l-.87.767 1.324 1.5.869-.766zM154.967 168.095l-.87.767 1.323 1.5.87-.766zM152.601 165.412l-.87.767 1.324 1.5.87-.766zM164.469 178.873l-.87.767 1.324 1.5.869-.765zM162.096 176.181l-.87.767 1.323 1.501.87-.767zM159.73 173.498l-.87.767 1.323 1.501.87-.767zM213.208 51.427h1.16v-2.001h-1.16zM213.208 47.837h1.16v-2h-1.16zM213.208 44.26h1.16v-2h-1.16zM213.208 62.206h1.16v-2h-1.16zM213.208 58.618h1.16v-2.001h-1.16zM213.208 55.04h1.16v-2h-1.16zM213.208 72.986h1.16v-2h-1.16zM213.208 69.397h1.16v-2h-1.16zM213.208 65.82h1.16v-2h-1.16zM213.208 83.766h1.16v-2h-1.16zM213.208 80.178h1.16v-2.001h-1.16zM213.208 76.6h1.16v-2h-1.16zM213.208 94.545h1.16v-2h-1.16zM213.208 90.957h1.16v-2h-1.16zM213.208 87.38h1.16v-2h-1.16zM213.208 105.326h1.16v-2h-1.16zM213.208 101.737h1.16v-2.001h-1.16zM213.208 98.16h1.16v-2h-1.16zM213.208 116.106h1.16v-2h-1.16zM213.208 112.517h1.16v-2h-1.16zM213.208 108.94h1.16v-2h-1.16zM213.208 126.886h1.16v-2h-1.16zM213.208 123.297h1.16v-2h-1.16zM213.208 119.72h1.16v-2.001h-1.16zM213.208 137.665h1.16v-2h-1.16zM213.208 134.077h1.16v-2h-1.16zM213.208 130.5h1.16v-2h-1.16zM213.208 148.446h1.16v-2.001h-1.16zM213.208 144.856h1.16v-2h-1.16zM213.208 141.28h1.16v-2.001h-1.16zM213.208 159.225h1.16v-2h-1.16zM213.208 155.637h1.16v-2h-1.16zM213.208 152.06h1.16v-2.002h-1.16z"/>
        <g transform="translate(0 .035)">
            <path fill="#EBEBEB" d="M28.388 216.718l2.318.094c.006-1.259.1-2.513.198-3.767l-2.315-.139c-.1 1.269-.194 2.538-.201 3.812M28.222 223.54l2.32.02.092-3.775-2.319-.061zM31.375 189.488l2.284.408c.219-1.24.408-2.483.652-3.717l-2.276-.451c-.247 1.248-.439 2.507-.66 3.76M30.248 196.242l2.297.33c.15-1.25.408-2.482.607-3.725l-2.29-.373c-.2 1.256-.46 2.504-.614 3.768M29.422 203.018l2.306.25.458-3.746-2.301-.295zM36.009 169.458l2.23.64.495-1.82.577-1.796-2.216-.684-.584 1.817zM34.207 176.065l2.251.563.993-3.64-2.24-.607zM32.7 182.722l2.27.486.816-3.685-2.26-.529zM42.678 150.008l2.151.869c.471-1.166.994-2.311 1.487-3.468l-2.133-.91c-.5 1.17-1.03 2.329-1.505 3.509M40.254 156.413l2.18.794 1.336-3.53-2.164-.835zM38.045 162.87l2.207.718 1.164-3.589-2.192-.76zM51.387 131.38l2.049 1.09 1.822-3.304-2.026-1.129zM48.3 137.493l2.084 1.017 1.665-3.386-2.064-1.058zM45.408 143.674l2.12.944c.517-1.146.963-2.325 1.546-3.441l-2.101-.985c-.589 1.13-1.042 2.322-1.565 3.482M61.998 113.77l1.922 1.299 2.128-3.118-1.897-1.335zM58.264 119.51l1.967 1.23c.67-1.064 1.295-2.159 2-3.2l-1.94-1.268c-.716 1.053-1.349 2.16-2.027 3.237M54.72 125.342l2.009 1.16c.593-1.109 1.3-2.152 1.945-3.232l-1.986-1.2c-.652 1.093-1.366 2.15-1.968 3.272M74.39 97.363l1.775 1.496c.813-.96 1.59-1.95 2.43-2.886l-1.743-1.53c-.851.947-1.639 1.95-2.461 2.92M70.05 102.66l1.826 1.431c.734-1.022 1.585-1.952 2.375-2.93l-1.798-1.467c-.8.99-1.66 1.932-2.404 2.966M65.938 108.11l1.876 1.366 2.272-3.012-1.848-1.403zM88.444 82.352l1.604 1.676c.871-.908 1.85-1.702 2.77-2.56l-1.57-1.708c-.931.867-1.922 1.673-2.804 2.592M83.584 87.179l1.662 1.618 2.677-2.659-1.63-1.65zM78.93 92.172l1.72 1.558 2.546-2.784-1.687-1.59zM104.061 68.974l1.412 1.841 3.031-2.245-1.373-1.87zM98.718 73.258l1.477 1.788 2.919-2.39-1.44-1.818zM93.533 77.697l1.543 1.734c.942-.832 1.845-1.71 2.82-2.503l-1.506-1.764c-.987.804-1.902 1.691-2.857 2.533M121.06 57.402l1.2 1.985 3.236-1.938-1.158-2.01zM115.262 61.046l1.273 1.94c1.055-.683 2.068-1.431 3.158-2.06l-1.232-1.967c-1.103.638-2.13 1.395-3.199 2.087M109.605 64.867l1.343 1.893c1.004-.757 2.079-1.413 3.116-2.124l-1.304-1.919c-1.05.72-2.137 1.385-3.155 2.15M139.23 47.77l.969 2.108c1.145-.517 2.255-1.114 3.43-1.561l-.923-2.129c-1.19.455-2.315 1.058-3.475 1.582M133.045 50.715l1.048 2.07c1.111-.586 2.267-1.085 3.399-1.632l-1.003-2.091c-1.147.554-2.317 1.06-3.444 1.653M127.02 53.93l1.124 2.03 3.328-1.776-1.081-2.052zM158.366 40.23l.722 2.205c1.188-.41 2.406-.728 3.607-1.096l-.675-2.22c-1.217.373-2.45.695-3.654 1.11M151.903 42.507l.806 2.176 3.557-1.254-.76-2.192zM145.555 45.018l.888 2.143 3.488-1.432-.842-2.163zM178.254 34.983l.464 2.274 3.706-.69-.415-2.283zM171.575 36.505l.55 2.254 3.667-.881-.503-2.266zM164.973 38.245l.637 2.231c1.21-.336 2.398-.76 3.629-1.023l-.59-2.244c-1.246.266-2.45.696-3.676 1.036M198.612 32.06l.2 2.311 3.76-.297-.152-2.315zM191.8 32.78l.288 2.303c1.247-.157 2.49-.35 3.74-.475l-.239-2.308c-1.267.126-2.525.322-3.789.48M185.037 33.721l.376 2.29c1.232-.253 2.488-.354 3.731-.54l-.326-2.296c-1.26.187-2.533.29-3.78.546M219.167 31.46l-.063 2.32 3.77.099.111-2.317zM212.318 31.38l.024 2.32 1.886-.05 1.884.051.024-2.32-1.908-.05zM205.492 31.56l.112 2.318 3.77-.1-.064-2.318zM239.66 33.18l-.327 2.297c1.242.186 2.5.283 3.73.54l.377-2.289c-1.248-.26-2.521-.36-3.78-.548M232.865 32.301l-.24 2.309c1.252.125 2.494.319 3.741.475l.288-2.302c-1.263-.159-2.522-.354-3.789-.482M226.058 31.762l-.151 2.315 3.759.298.2-2.312zM259.827 37.218l-.588 2.244c1.229.266 2.416.688 3.627 1.025l.636-2.23c-1.226-.342-2.429-.769-3.675-1.039M253.166 35.617l-.503 2.265 3.666.881.55-2.253zM246.468 34.292l-.416 2.282 3.708.69.464-2.273zM279.386 43.582l-.842 2.161 3.488 1.433.888-2.143zM272.947 41.243l-.759 2.192 3.557 1.253.805-2.176zM266.456 39.13l-.675 2.22c1.201.369 2.42.683 3.606 1.097l.723-2.204c-1.203-.42-2.438-.74-3.654-1.113M298.083 52.15L297 54.202l3.327 1.775 1.125-2.03zM291.965 49.069l-1.003 2.092c1.131.547 2.288 1.044 3.398 1.632l1.048-2.07c-1.126-.595-2.297-1.1-3.443-1.654M285.769 46.203l-.925 2.128c1.175.449 2.284 1.048 3.43 1.563l.97-2.108c-1.16-.522-2.286-1.128-3.475-1.583M315.71 62.738l-1.303 1.919c1.035.712 2.113 1.366 3.115 2.125l1.343-1.891c-1.015-.769-2.105-1.432-3.154-2.153M309.992 58.968l-1.232 1.966c1.088.63 2.103 1.378 3.158 2.06l1.272-1.94c-1.068-.69-2.096-1.447-3.198-2.086M304.134 55.46l-1.158 2.01 3.235 1.938 1.2-1.986zM332.079 75.188l-1.508 1.765c.974.796 1.879 1.671 2.822 2.504l1.541-1.734c-.954-.842-1.87-1.728-2.855-2.535M326.779 70.849l-1.441 1.818 2.917 2.39 1.48-1.788zM321.34 66.723l-1.374 1.87 3.031 2.245 1.412-1.842zM346.957 89.384l-1.689 1.59 2.548 2.785 1.719-1.559zM342.157 84.499l-1.63 1.651 2.677 2.658 1.663-1.617zM337.22 79.786l-1.57 1.708c.92.857 1.897 1.653 2.769 2.562l1.604-1.676c-.884-.92-1.87-1.728-2.803-2.594M360.224 105.092l-1.848 1.402 2.273 3.012 1.874-1.365zM355.996 99.707l-1.798 1.467c.791.977 1.64 1.907 2.375 2.93l1.826-1.431c-.744-1.034-1.603-1.978-2.403-2.966M351.613 94.472l-1.744 1.53c.838.937 1.617 1.926 2.43 2.886l1.774-1.494c-.822-.973-1.611-1.973-2.46-2.922M371.771 122.104l-1.986 1.199c.645 1.08 1.353 2.122 1.943 3.233l2.01-1.16c-.599-1.124-1.315-2.179-1.967-3.272M368.158 116.286l-1.943 1.268c.706 1.041 1.331 2.135 2 3.2l1.969-1.23c-.678-1.078-1.312-2.184-2.026-3.238M364.31 110.648l-1.897 1.335 2.127 3.117 1.922-1.298zM381.484 140.227l-2.101.984c.582 1.117 1.025 2.297 1.544 3.443l2.12-.944c-.525-1.16-.975-2.353-1.563-3.483M378.462 134.08l-2.066 1.058 1.666 3.386 2.085-1.017zM375.226 128.071l-2.028 1.129 1.824 3.304 2.048-1.09zM389.227 159.275l-2.192.761 1.165 3.588 2.206-.717zM386.84 152.857l-2.165.836 1.336 3.53 2.18-.795zM384.271 146.534l-2.134.91c.494 1.157 1.02 2.302 1.486 3.468l2.152-.868c-.474-1.182-1.004-2.338-1.504-3.51M394.92 179.032l-2.258.529.816 3.685 2.268-.486zM393.232 172.397l-2.24.607.993 3.64 2.25-.563zM391.357 165.835l-2.216.683c.189.6.396 1.195.573 1.797l.498 1.821 2.23-.64-.503-1.842c-.182-.61-.39-1.213-.582-1.819M398.56 199.266l-2.301.295.457 3.746 2.306-.25zM397.58 192.49l-2.29.373c.198 1.243.457 2.475.606 3.724l2.297-.329c-.151-1.263-.412-2.51-.613-3.768M396.412 185.765l-2.276.45c.24 1.235.432 2.479.652 3.718l2.283-.407c-.22-1.253-.416-2.512-.659-3.76M400.125 219.763l-2.32.06.093 3.774 2.32-.016zM399.852 212.923l-2.316.138c.099 1.255.191 2.51.197 3.768l2.318-.094c-.007-1.274-.1-2.543-.199-3.812M399.354 206.115l-2.31.216.276 3.764 2.313-.171z"/>
            <g transform="translate(0 186.84)">
                <mask id="b" fill="#fff">
                    <use xlink:href="#a"/>
                </mask>
                <path fill="#53AC60" d="M65.734 33.286c0 18.153-14.715 32.868-32.868 32.868C14.715 66.154 0 51.44 0 33.286 0 15.133 14.715.42 32.866.42c18.153 0 32.868 14.713 32.868 32.866" mask="url(#b)"/>
            </g>
            <path fill="#205C91" d="M10.618 226.598v-.003zM10.618 222.359v-.002zM10.618 209.772z"/>
            <path fill="#FFF" d="M54.428 232.114c-2.498 2.84-11.076 4.88-21.561 4.88-10.486 0-19.062-2.04-21.561-4.88v2.517c0 2.83 8.663 5.862 21.56 5.862 12.899 0 21.562-3.031 21.562-5.862v-2.517z"/>
            <path fill="#205C91" d="M10.618 214.012v-.003zM10.618 230.838h.001l-.001-.004v.004"/>
            <path fill="#FFF" d="M32.866 220.167c-10.485 0-19.062-2.038-21.56-4.879v2.518c0 2.83 8.663 5.862 21.56 5.862 12.899 0 21.562-3.031 21.562-5.862v-2.518c-2.498 2.841-11.076 4.88-21.562 4.88M32.866 200.407c10.893 0 19.721 2.294 19.721 5.126 0 2.83-8.828 5.126-19.72 5.126s-19.72-2.295-19.72-5.126c0-2.832 8.828-5.126 19.72-5.126m0 10.987c12.898 0 21.561-3.03 21.561-5.861 0-2.832-8.663-5.861-21.562-5.861-12.897 0-21.56 3.03-21.56 5.86 0 2.832 8.663 5.862 21.56 5.862"/>
            <path fill="#FFF" d="M32.866 215.929c-10.485 0-19.062-2.04-21.56-4.88v2.517c0 2.83 8.663 5.862 21.56 5.862 12.899 0 21.562-3.032 21.562-5.862v-2.516c-2.498 2.84-11.076 4.879-21.562 4.879M32.866 232.755c-10.485 0-19.062-2.04-21.56-4.88v2.517c0 2.83 8.663 5.862 21.56 5.862 12.899 0 21.562-3.032 21.562-5.862v-2.518c-2.498 2.84-11.076 4.88-21.562 4.88"/>
            <path fill="#FFF" d="M32.866 212.135c-10.485 0-19.062-2.04-21.56-4.88v2.073c0 2.83 8.663 5.862 21.56 5.862 12.899 0 21.562-3.032 21.562-5.862v-2.073c-2.498 2.84-11.076 4.88-21.562 4.88M32.866 224.408c-10.485 0-19.062-2.04-21.56-4.88v2.386c0 2.83 8.663 5.86 21.56 5.86 12.899 0 21.562-3.03 21.562-5.86v-2.386c-2.498 2.84-11.076 4.88-21.562 4.88"/>
            <path fill="#FFF" d="M32.866 228.515c-10.485 0-19.062-2.039-21.56-4.88v2.517c0 2.83 8.663 5.862 21.56 5.862 12.899 0 21.562-3.031 21.562-5.862v-2.517c-2.498 2.841-11.076 4.88-21.562 4.88"/>
            <mask id="d" fill="#fff">
                <use xlink:href="#c"/>
            </mask>
            <path fill="#EBEBEB" d="M376.688 220.493h2v-1.16h-2zM380.276 220.493h2.001v-1.16h-2zM383.853 220.493h2v-1.16h-2zM365.908 220.493h2v-1.16h-2zM369.497 220.493h2v-1.16h-2zM373.074 220.493h2v-1.16h-2zM355.128 220.493h2v-1.16h-2zM358.717 220.493h2v-1.16h-2zM362.294 220.493h2v-1.16h-2zM344.349 220.493h2v-1.16h-2zM347.937 220.493h2v-1.16h-2zM351.514 220.493h2v-1.16h-2zM333.568 220.493h2.001v-1.16h-2zM337.158 220.493h2v-1.16h-2zM340.734 220.493h2.001v-1.16h-2zM322.789 220.493h2v-1.16h-2zM326.377 220.493h2v-1.16h-2zM329.954 220.493h2v-1.16h-2zM312.008 220.493h2.001v-1.16h-2zM315.598 220.493h2v-1.16h-2zM319.174 220.493h2.001v-1.16h-2zM301.228 220.493h2v-1.16h-2zM304.817 220.493h2.001v-1.16h-2zM308.394 220.493h2v-1.16h-2zM290.448 220.493h2.001v-1.16h-2zM294.037 220.493h2v-1.16h-2zM297.614 220.493h2v-1.16h-2zM279.668 220.493h2v-1.16h-2zM283.257 220.493h2.001v-1.16h-2zM286.834 220.493h2v-1.16h-2zM268.889 220.493h2v-1.16h-2zM272.477 220.493h2v-1.16h-2zM276.054 220.493h2v-1.16h-2z" mask="url(#d)"/>
            <path fill="#53AC60" d="M396.3 252.994c18.151 0 32.866-14.716 32.866-32.868 0-18.153-14.715-32.866-32.867-32.866-18.152 0-32.867 14.713-32.867 32.866 0 18.152 14.715 32.868 32.867 32.868zM214.218 66.592c-18.15 0-32.867-14.714-32.867-32.866 0-18.153 14.716-32.867 32.867-32.867 18.152 0 32.867 14.714 32.867 32.867 0 18.152-14.715 32.866-32.867 32.866zM80.001 124.357c-18.15 0-32.866-14.714-32.866-32.866S61.85 58.624 80.001 58.624c18.153 0 32.868 14.715 32.868 32.867 0 18.152-14.715 32.866-32.868 32.866z" mask="url(#d)"/>
        </g>
        <g transform="translate(56.32 71.553)">
            <mask id="f" fill="#fff">
                <use xlink:href="#e"/>
            </mask>
            <path fill="#FFFFFE" d="M47.102 29.145a6.628 6.628 0 0 1-6.628 6.629H6.89a6.628 6.628 0 0 1-6.628-6.63V7.459A6.627 6.627 0 0 1 6.89.83h33.585a6.627 6.627 0 0 1 6.628 6.628v21.687z" mask="url(#f)"/>
        </g>
        <g transform="translate(56.32 71.553)">
            <mask id="h" fill="#fff">
                <use xlink:href="#g"/>
            </mask>
            <path fill="#A0DB9C" d="M1.014 2.335l22.682 16.162L47.521 2.405 20.916-23.513 1.014 2.335zm22.653 18.582L-1.82 2.757l22.521-29.253L50.66 2.686l-26.992 18.23z" mask="url(#h)"/>
        </g>
        <g transform="translate(56.32 71.553)">
            <mask id="j" fill="#fff">
                <use xlink:href="#i"/>
            </mask>
            <path fill="#A0DB9C" d="M-.455 37.916l-1.652-1.108 16.075-23.987 1.652 1.107z" mask="url(#j)"/>
        </g>
        <g transform="translate(56.32 71.553)">
            <mask id="l" fill="#fff">
                <use xlink:href="#k"/>
            </mask>
            <path fill="#A0DB9C" d="M47.601 37.916L31.527 13.928l1.651-1.107 16.075 23.987z" mask="url(#l)"/>
        </g>
        <g transform="translate(192.204 17.914)">
            <mask id="n" fill="#fff">
                <use xlink:href="#m"/>
            </mask>
            <path fill="#A0DB9C" d="M32.183.412c-9.01 0-10.94 8.69-10.94 8.69S19.31.412 10.3.412C1.29.412-1.606 9.423.97 16.181c2.574 6.757 16.089 17.054 20.273 19.307 4.182-2.253 17.698-12.55 20.272-19.307C44.09 9.423 41.195.412 32.183.412" mask="url(#n)"/>
        </g>
        <g transform="translate(192.204 17.914)">
            <mask id="p" fill="#fff">
                <use xlink:href="#o"/>
            </mask>
            <path stroke="#FFFFFE" stroke-width="1.893" d="M-4.15 20.663h25.392L26.316 9.9l3.386 14.156 4.512-6.105h11.848" mask="url(#p)"/>
        </g>
        <g transform="translate(0 .035)">
            <path fill="#53AC60" d="M346.098 124.357c18.151 0 32.866-14.714 32.866-32.866s-14.715-32.867-32.866-32.867c-18.153 0-32.868 14.715-32.868 32.867 0 18.152 14.715 32.866 32.868 32.866z"/>
            <mask id="r" fill="#fff">
                <use xlink:href="#q"/>
            </mask>
            <path fill="#FFFFFE" d="M339.153 103.18h6.698V72.477h-6.698zM346.918 103.962h6.7V76.023h-6.7zM331.492 103.962h6.7V82.817h-6.7z" mask="url(#r)"/>
            <path stroke="#A0DB9C" stroke-width="2.189" d="M361.324 85.349l-4.35 17.9h-27.57l-5.254-17.9z" mask="url(#r)"/>
            <path stroke="#A0DB9C" stroke-width="2.138" d="M325.885 91.257h34.004" mask="url(#r)"/>
            <path stroke="#A0DB9C" stroke-width="2.026" d="M327.733 97.56h30.537" mask="url(#r)"/>
            <path fill="#FFF" d="M340.128 107.669a4.42 4.42 0 1 1-8.84 0 4.42 4.42 0 0 1 8.84 0M355.801 107.669a4.42 4.42 0 1 1-8.839 0 4.42 4.42 0 0 1 8.84 0" mask="url(#r)"/>
            <path stroke="#A0DB9C" stroke-width="2.026" d="M360.529 88.622l4.238-13.09h6.304" mask="url(#r)"/>
            <path fill="#0D3956" d="M420.607 210.232c-.075-1.566-.676-4.842-4.397-4.842h-39.231c-3.66 0-4.302 3.17-4.395 4.765v19.047h.004l-.004.047v.772c.075 1.567.676 4.844 4.397 4.844h39.232c3.66 0 4.301-3.17 4.394-4.767V211.051h-.003l.003-.047v-.772z" mask="url(#r)"/>
        </g>
        <g transform="translate(371.892 204.754)">
            <mask id="t" fill="#fff">
                <use xlink:href="#s"/>
            </mask>
            <use fill="#A0DB9C" xlink:href="#s"/>
            <path fill="#A0DB9C" d="M40 15.643c0 9.578-6.997 17.342-15.63 17.342-8.632 0-15.629-7.764-15.629-17.342 0-9.577 6.997-17.342 15.63-17.342C33.003-1.7 40 6.066 40 15.643" mask="url(#t)"/>
        </g>
        <g>
            <path fill="#3C8C46" d="M405.753 214.645h10.933v-4.767h-10.933z"/>
            <path fill="#FFF" d="M377.15 230.206h39.536v-1.964H377.15z"/>
            <path fill="#3C8C46" d="M376.74 223.576h7.835v-6.83h-7.834z"/>
            <g fill="#A0DB9C">
                <path d="M47.43 226.979v3.488c-2.207.569-4.873 1.022-7.915 1.295v-3.505c2.963-.265 5.641-.703 7.915-1.278M47.43 231.243v3.489c-2.207.568-4.873 1.021-7.915 1.295v-3.505c2.963-.266 5.641-.703 7.915-1.279M47.43 235.471v3.489c-2.207.568-4.873 1.021-7.915 1.295v-3.505c2.963-.266 5.641-.703 7.915-1.279M47.43 218.654v3.488c-2.207.568-4.873 1.022-7.915 1.295v-3.505c2.963-.266 5.641-.703 7.915-1.278M47.43 214.407v3.488c-2.207.569-4.873 1.022-7.915 1.296v-3.505c2.963-.266 5.641-.703 7.915-1.279M47.43 210.627v3.01c-2.207.569-4.873 1.022-7.915 1.295v-3.027c2.963-.265 5.641-.702 7.915-1.278M47.43 222.892v3.339c-2.207.569-4.873 1.022-7.915 1.295v-3.356c2.963-.265 5.641-.702 7.915-1.278"/>
            </g>
        </g>
        <g>
            <g transform="translate(125 142)">
                <use fill="#000" filter="url(#u)" xlink:href="#v"/>
                <use fill="#FFF" xlink:href="#v"/>
            </g>
            <path fill="#3C8C46" d="M125 151.954h180V147a5 5 0 0 0-5-5H130a5 5 0 0 0-5 5v4.954z"/>
            <path fill="#FFF" d="M299.809 147.339a2.4 2.4 0 0 1-2.398 2.4 2.399 2.399 0 0 1-2.397-2.4c0-1.326 1.072-2.401 2.397-2.401a2.4 2.4 0 0 1 2.398 2.4M291.817 147.339a2.4 2.4 0 0 1-2.397 2.4 2.399 2.399 0 0 1-2.398-2.4c0-1.326 1.073-2.401 2.398-2.401a2.4 2.4 0 0 1 2.397 2.4"/>
            <path fill="#53AC60" d="M125 182.344h179.83v-11.686H125z"/>
            <path fill="#FFF" d="M239.624 179.057h55.119v-5.12h-55.12z"/>
            <path fill="#A0DB9C" d="M137.236 178.226h16.124v-3.451h-16.124zM154.68 178.226h16.123v-3.451H154.68zM172.121 178.226h16.125v-3.451h-16.125zM189.564 178.226h16.124v-3.451h-16.124zM160.625 226.33h32.745v-26.57h-32.745z"/>
            <path fill="#FFF" d="M297.136 174.645a1.74 1.74 0 0 1 2.423 0 1.65 1.65 0 0 1 0 2.37 1.742 1.742 0 0 1-2.423 0 1.652 1.652 0 0 1 0-2.37m1.211-.098a1.283 1.283 0 0 0 0 2.566 1.282 1.282 0 0 0 0-2.566M299.853 177.67l-.379-.374a1.453 1.453 0 0 0 .405-.413l.387.38-.413.408zM301.876 178.769a.338.338 0 0 1 0 .482.357.357 0 0 1-.494 0l-1.496-1.476.491-.484 1.499 1.478z"/>
            <path fill="#FFF" d="M298.249 176.88a.993.993 0 0 0 .37-.072.114.114 0 1 0-.086-.213.779.779 0 0 1-.284.056c-.254 0-.467-.129-.55-.335a.116.116 0 0 0-.15-.065.114.114 0 0 0-.063.151c.123.306.433.479.76.479h.003z"/>
            <path fill="#A0DB9C" d="M197.046 226.114h32.746v-26.57h-32.746zM233.468 225.981h32.746v-26.57h-32.746z"/>
            <path fill="#E7EBF2" d="M139.328 319.066h46.887v-2.316h-46.887zM139.328 323.26h46.887v-2.315h-46.887zM139.328 327.453h46.887v-2.316h-46.887zM139.328 331.646h46.887v-2.315h-46.887zM139.328 335.838h46.887v-2.315h-46.887zM139.328 340.031h46.887v-2.315h-46.887zM139.328 344.224h46.887v-2.315h-46.887zM192.037 319.066h46.887v-2.316h-46.887zM192.037 323.26h46.887v-2.315h-46.887zM192.037 327.453h46.887v-2.316h-46.887zM192.037 331.646h46.887v-2.315h-46.887zM192.037 335.838h46.887v-2.315h-46.887zM192.037 340.031h46.887v-2.315h-46.887zM192.037 344.224h46.887v-2.315h-46.887zM245.056 319.066h46.885v-2.316h-46.885zM245.056 323.26h46.885v-2.315h-46.885zM245.056 327.453h46.885v-2.316h-46.885zM245.056 331.646h46.885v-2.315h-46.885zM245.056 335.838h46.885v-2.315h-46.885zM245.056 340.031h46.885v-2.315h-46.885zM245.056 344.224h46.885v-2.315h-46.885z"/>
            <path fill="#53AC60" d="M125 299.798h179.83V243.58H125z"/>
            <path fill="#A0DB9C" d="M141.857 290.496h46.375v-37.629h-46.375z"/>
            <path fill="#FFF" d="M200.19 267.32h74.196v-1.238H200.19zM200.19 270.379h74.196v-1.239H200.19zM200.19 273.428h74.196v-1.238H200.19zM200.19 276.486h48.881v-1.236H200.19z"/>
            <path fill="#78C272" d="M139.328 314.604h46.887v-12.156h-46.887zM192.037 315.106h46.887V302.95h-46.887zM245.056 315.232h46.885v-12.156h-46.885z"/>
        </g>
    </g>
</svg>
