<svg xmlns="http://www.w3.org/2000/svg" width="44" height="44" fill="none"><path stroke="url(#a)" d="M30.074 22a8.074 8.074 0 1 1-16.148 0 8.074 8.074 0 0 1 16.148 0z"/><path stroke="url(#b)" d="M39.997 7.451A3.449 3.449 0 0 0 34.614 4.6 21.385 21.385 0 0 0 22 .5C10.144.5.5 10.145.5 22S10.145 43.5 22 43.5 43.5 33.855 43.5 22c0-4.709-1.523-9.069-4.1-12.614a3.42 3.42 0 0 0 .597-1.935zM22 41.793c-10.914 0-19.794-8.88-19.794-19.793 0-10.914 8.88-19.794 19.794-19.794 4.276 0 8.238 1.363 11.478 3.677a3.448 3.448 0 0 0 4.637 4.637A19.682 19.682 0 0 1 41.793 22c0 10.913-8.88 19.793-19.793 19.793z"/><defs><linearGradient id="a" x1="30.574" x2="30.574" y1="30.574" y2="13.426" gradientUnits="userSpaceOnUse"><stop stop-color="#3E9679"/><stop offset=".523" stop-color="#4DA567"/><stop offset="1" stop-color="#58B25B"/></linearGradient><linearGradient id="b" x1="43" x2="43" y1="43" y2="1" gradientUnits="userSpaceOnUse"><stop stop-color="#3E9679"/><stop offset=".523" stop-color="#4DA567"/><stop offset="1" stop-color="#58B25B"/></linearGradient></defs></svg>