<svg xmlns="http://www.w3.org/2000/svg" xmlns:xlink="http://www.w3.org/1999/xlink" width="371" height="253" viewBox="0 0 371 253">
    <defs>
        <path id="a" d="M0 0h300v197.475H0z"/>
        <rect id="d" width="180" height="151" rx="5"/>
        <filter id="c" width="118.3%" height="121.9%" x="-9.2%" y="-8.9%" filterUnits="objectBoundingBox">
            <feOffset dy="3" in="SourceAlpha" result="shadowOffsetOuter1"/>
            <feGaussianBlur in="shadowOffsetOuter1" result="shadowBlurOuter1" stdDeviation="5"/>
            <feColorMatrix in="shadowBlurOuter1" values="0 0 0 0 0.215686275 0 0 0 0 0.274509804 0 0 0 0 0.37254902 0 0 0 0.15 0"/>
        </filter>
        <path id="e" d="M.002.19h22.85V30.02H.002z"/>
        <path id="g" d="M0 112h139.162V.19H0z"/>
    </defs>
    <g fill="none" fill-rule="evenodd">
        <g transform="translate(-8 -10)">
            <mask id="b" fill="#fff">
                <use xlink:href="#a"/>
            </mask>
            <path fill="#53AC60" d="M258.579 92.729a54.663 54.663 0 0 0-23.284-14.965c-3.471-25.646-25.508-45.494-52.089-45.494-2.268 0-4.51.148-6.734.424A69.251 69.251 0 0 0 125.214 10c-17.572 0-34.328 6.586-47.191 18.557-9.902 9.227-16.8 20.998-20.011 33.913C29.569 67.879 8 92.938 8 122.92c0 33.939 27.61 61.55 61.558 61.55h148.79c30.172 0 54.703-24.538 54.703-54.695 0-13.779-5.142-26.936-14.472-37.046" mask="url(#b)"/>
        </g>
        <g transform="translate(181 89)">
            <use fill="#000" filter="url(#c)" xlink:href="#d"/>
            <use fill="#FFF" xlink:href="#d"/>
        </g>
        <path fill="#3C8C46" d="M211 202.006l.016 17.994H218l-.01-18z"/>
        <path fill="#78C272" d="M220 195.006l.01 24.994H227l-.016-25z"/>
        <path fill="#323F56" d="M230 188.005l.022 31.995 6.978-.005-.022-31.995z"/>
        <path fill="#53AC60" d="M239 180.006l.022 39.994 6.978-.006-.022-39.994z"/>
        <g transform="translate(201 108)">
            <mask id="f" fill="#fff">
                <use xlink:href="#e"/>
            </mask>
            <path fill="#323F56" d="M22.852 6.6L20.08.19C8.504 3.649-.009 14.255.002 26.918c0 1.043.195 2.036.306 3.056l6.996.045c-.156-1.021-.317-2.042-.317-3.101-.005-9.8 6.769-17.988 15.865-20.317z" mask="url(#f)"/>
            <path fill="#53AC60" d="M23.376 1.212l2.84 6.562c1.111-.183 2.234-.339 3.4-.344 11.62-.006 21.078 9.424 21.084 21.027.005 11.598-9.442 21.039-21.061 21.044-9.925.006-18.216-6.889-20.444-16.118l-7.135-.05c2.323 13.129 13.776 23.152 27.579 23.146 15.476-.011 28.057-12.58 28.051-28.027C57.68 13.01 45.087.447 29.611.458c-2.15 0-4.223.294-6.235.754z"/>
            <mask id="h" fill="#fff">
                <use xlink:href="#g"/>
            </mask>
            <path fill="#53AC60" d="M79.636 110.586h3.546V82.458h-3.546z" mask="url(#h)"/>
            <path fill="#323F56" d="M86.199 110.586h3.545V63.489H86.2z" mask="url(#h)"/>
            <path fill="#3C8C46" d="M92.756 110.586h3.545v-18.67h-3.545z" mask="url(#h)"/>
            <path fill="#323F56" d="M99.313 110.586h3.546V80.04h-3.546z" mask="url(#h)"/>
            <path fill="#3C8C46" d="M105.876 110.586h3.545V74.294h-3.545z" mask="url(#h)"/>
            <path fill="#323F56" d="M112.433 110.586h3.546V62.108h-3.546z" mask="url(#h)"/>
            <path fill="#78C272" d="M118.99 110.586h3.546V83.257h-3.546z" mask="url(#h)"/>
            <path fill="#323F56" d="M125.553 110.586h3.545V55.674h-3.545z" mask="url(#h)"/>
            <path fill="#78C272" d="M131.727 110.586h3.545V82.569h-3.545z" mask="url(#h)"/>
            <path fill="#524641" d="M86.188 111.534h.406v-.887h-.406zM92.74 111.562h.405v-.888h-.406zM99.291 111.595h.406v-.887h-.406zM105.837 111.623h.406v-.882h-.406zM112.383 111.656h.406v-.882h-.406zM118.935 111.69h.405v-.888h-.405zM125.486 111.723h.406v-.888h-.406z" mask="url(#h)"/>
            <path fill="#E7EBF2" d="M73.813 110.885h65.349v-.438h-65.35zM67.367 11.123h64.821V10.03H67.367zM67.367 18.328h64.821v-1.093H67.367zM67.367 25.527h64.821v-1.092H67.367zM67.367 32.727h64.821v-1.093H67.367zM67.367 39.932h64.821V38.84H67.367zM67.367 47.137h64.821v-1.092H67.367z" mask="url(#h)"/>
        </g>
        <path fill="#FFF" d="M104.275 75.5h7.3V116h-7.3V75.5zm21.85 40.95c-3.1 0-5.417-.858-6.95-2.575-1.533-1.717-2.3-4.208-2.3-7.475v-9.7c0-3.267.767-5.758 2.3-7.475 1.533-1.717 3.85-2.575 6.95-2.575s5.425.858 6.975 2.575c1.55 1.717 2.325 4.208 2.325 7.475v9.7c0 3.267-.775 5.758-2.325 7.475-1.55 1.717-3.875 2.575-6.975 2.575zm.05-4.7c1.033 0 1.717-.408 2.05-1.225.333-.817.5-2.025.5-3.625V96.25c0-1.6-.167-2.817-.5-3.65-.333-.833-1.017-1.25-2.05-1.25-1.067 0-1.767.417-2.1 1.25-.333.833-.5 2.05-.5 3.65v10.65c0 1.6.167 2.808.5 3.625.333.817 1.033 1.225 2.1 1.225zm18.45-30.8h-6.45V75.5h20.15v5.45h-6.3V116h-7.4V80.95z"/>
    </g>
</svg>
