<svg width="33" height="42" fill="none" xmlns="http://www.w3.org/2000/svg"><g fill-rule="evenodd" clip-rule="evenodd"><path d="M22.686 1.364c-1.073.154-3.341.66-4.6 2.254-1.258 1.595-1.223 3.92-1.123 4.999 1.072-.154 3.341-.66 4.6-2.255 1.259-1.595 1.224-3.919 1.123-4.998zM16.398 9.98a.652.652 0 0 1-.638-.527c-.031-.163-.748-4.04 1.304-6.64C19.116.211 23.054.007 23.221 0a.659.659 0 0 1 .668.526c.03.164.747 4.04-1.305 6.64-2.053 2.601-5.99 2.805-6.156 2.813h-.03z" fill="url(#paint0_linear)"/><path d="M16.834 38.698c.83 0 1.661.207 2.401.621l1.524.852c1.704.953 3.858.589 5.123-.866 1.455-1.675 3.43-4.26 4.81-7.284a9.785 9.785 0 0 1-5.39-8.754 9.718 9.718 0 0 1 3.276-7.3 7.744 7.744 0 0 0-8.42-1.298l-1.289.584a4.928 4.928 0 0 1-4.07 0l-1.288-.584c-3.233-1.468-7.153-.515-9.317 2.262-6.517 8.366-.547 17.608 3.592 22.373 1.264 1.456 3.419 1.82 5.124.867l1.524-.852a4.918 4.918 0 0 1 2.4-.62m5.951 3.3a5.445 5.445 0 0 1-2.661-.692l-1.523-.852a3.642 3.642 0 0 0-3.533 0l-1.524.852c-2.239 1.253-5.073.77-6.74-1.149C-3.45 28.355.126 20.04 3.168 16.133c2.57-3.3 7.044-4.386 10.88-2.649l1.289.585a3.624 3.624 0 0 0 2.995 0l1.288-.585c3.578-1.62 7.756-.783 10.402 2.087a.65.65 0 0 1-.082.957c-2.12 1.627-3.336 4.084-3.336 6.74 0 3.424 2.038 6.5 5.193 7.833a.652.652 0 0 1 .345.852c-1.449 3.428-3.67 6.354-5.277 8.205A5.394 5.394 0 0 1 22.785 42" fill="url(#paint1_linear)"/></g><defs><linearGradient id="paint0_linear" x1="24.034" y1="9.98" x2="24.034" y2="0" gradientUnits="userSpaceOnUse"><stop stop-color="#3E9679"/><stop offset=".523" stop-color="#4DA567"/><stop offset="1" stop-color="#58B25B"/></linearGradient><linearGradient id="paint1_linear" x1="32.194" y1="42" x2="32.194" y2="12.664" gradientUnits="userSpaceOnUse"><stop stop-color="#3E9679"/><stop offset=".523" stop-color="#4DA567"/><stop offset="1" stop-color="#58B25B"/></linearGradient></defs></svg>