<svg width="33" height="42" fill="none" xmlns="http://www.w3.org/2000/svg"><mask id="a" maskUnits="userSpaceOnUse" x="0" y="0" width="33" height="42"><path fill-rule="evenodd" clip-rule="evenodd" d="M0 0h32.64v42H0V0z" fill="#fff"/></mask><g mask="url(#a)"><path fill-rule="evenodd" clip-rule="evenodd" d="M5.266 34.032h22.107V17.268H5.266v16.764zM16.32 5.594c5.886 0 10.697 4.627 11.022 10.433H5.298c.324-5.806 5.136-10.433 11.022-10.433zm5.823.23L24.592.897a.62.62 0 0 0-1.11-.553l-2.46 4.948a12.216 12.216 0 0 0-4.702-.939c-1.665 0-3.252.336-4.702.94L9.16.343a.62.62 0 1 0-1.11.553l2.449 4.927c-3.85 2.079-6.472 6.15-6.472 10.823v18.005c0 .343.277.62.62.62H9.95v6.108a.62.62 0 1 0 1.24 0v-6.108h10.26v6.108a.62.62 0 1 0 1.24 0v-6.108h5.304a.62.62 0 0 0 .62-.62V16.647c0-4.673-2.622-8.744-6.471-10.823z" fill="url(#paint0_linear)"/></g><mask id="b" maskUnits="userSpaceOnUse" x="0" y="0" width="33" height="42"><path fill-rule="evenodd" clip-rule="evenodd" d="M0 0h32.64v42H0V0z" fill="#fff"/></mask><g mask="url(#b)"><path fill-rule="evenodd" clip-rule="evenodd" d="M32.02 16.027a.62.62 0 0 0-.62.62v10.288a.62.62 0 1 0 1.24 0V16.647a.62.62 0 0 0-.62-.62" fill="url(#paint1_linear)"/></g><mask id="c" maskUnits="userSpaceOnUse" x="0" y="0" width="33" height="42"><path fill-rule="evenodd" clip-rule="evenodd" d="M0 0h32.64v42H0V0z" fill="#fff"/></mask><g mask="url(#c)"><path fill-rule="evenodd" clip-rule="evenodd" d="M.62 16.027a.62.62 0 0 0-.62.62v10.288a.62.62 0 1 0 1.24 0V16.647a.62.62 0 0 0-.62-.62" fill="url(#paint2_linear)"/></g><g><mask id="d" maskUnits="userSpaceOnUse" x="0" y="0" width="33" height="42"><path fill-rule="evenodd" clip-rule="evenodd" d="M0 0h32.64v42H0V0z" fill="#fff"/></mask><g mask="url(#d)"><path fill-rule="evenodd" clip-rule="evenodd" d="M11.363 13.312a.951.951 0 0 0 .303.205c.113.042.23.067.355.067a.93.93 0 0 0 .911-1.11c-.012-.061-.031-.117-.05-.173a.938.938 0 0 0-1.041-.558.817.817 0 0 0-.175.056c-.06.018-.11.05-.16.08a.975.975 0 0 0-.348.422c-.018.056-.037.112-.05.173a.97.97 0 0 0 .05.534.927.927 0 0 0 .205.304" fill="url(#paint3_linear)"/></g></g><g><mask id="e" maskUnits="userSpaceOnUse" x="0" y="0" width="33" height="42"><path fill-rule="evenodd" clip-rule="evenodd" d="M0 0h32.64v42H0V0z" fill="#fff"/></mask><g mask="url(#e)"><path fill-rule="evenodd" clip-rule="evenodd" d="M20.623 13.585a.975.975 0 0 0 .353-.068c.112-.05.211-.118.304-.205a.926.926 0 0 0 .267-.658c0-.242-.1-.483-.267-.657-.043-.043-.093-.08-.143-.118a.775.775 0 0 0-.161-.08.909.909 0 0 0-.713 0 .784.784 0 0 0-.161.08c-.05.038-.1.075-.137.118a.516.516 0 0 0-.117.143c-.038.05-.063.106-.088.162a.846.846 0 0 0-.074.353c0 .248.099.483.279.657a.92.92 0 0 0 .658.273" fill="url(#paint4_linear)"/></g></g><defs><linearGradient id="paint0_linear" x1="28.614" y1="42" x2="28.614" y2="0" gradientUnits="userSpaceOnUse"><stop stop-color="#3E9679"/><stop offset=".523" stop-color="#4DA567"/><stop offset="1" stop-color="#58B25B"/></linearGradient><linearGradient id="paint1_linear" x1="32.64" y1="27.556" x2="32.64" y2="16.027" gradientUnits="userSpaceOnUse"><stop stop-color="#3E9679"/><stop offset=".523" stop-color="#4DA567"/><stop offset="1" stop-color="#58B25B"/></linearGradient><linearGradient id="paint2_linear" x1="1.24" y1="27.556" x2="1.24" y2="16.027" gradientUnits="userSpaceOnUse"><stop stop-color="#3E9679"/><stop offset=".523" stop-color="#4DA567"/><stop offset="1" stop-color="#58B25B"/></linearGradient><linearGradient id="paint3_linear" x1="12.951" y1="13.584" x2="12.951" y2="11.725" gradientUnits="userSpaceOnUse"><stop stop-color="#3E9679"/><stop offset=".523" stop-color="#4DA567"/><stop offset="1" stop-color="#58B25B"/></linearGradient><linearGradient id="paint4_linear" x1="21.547" y1="13.585" x2="21.547" y2="11.724" gradientUnits="userSpaceOnUse"><stop stop-color="#3E9679"/><stop offset=".523" stop-color="#4DA567"/><stop offset="1" stop-color="#58B25B"/></linearGradient></defs></svg>