<svg xmlns="http://www.w3.org/2000/svg" width="57" height="40" fill="none" viewBox="0 0 57 40">
    <path fill-rule="evenodd" stroke="url(#a)" stroke-linecap="round" stroke-linejoin="round" d="M28.858 23.748c-5.912 10.24-13.98 16.648-18.022 14.315-4.042-2.333-2.525-12.525 3.386-22.765C20.135 5.058 28.203-1.35 32.245.983c4.041 2.334 2.525 12.525-3.387 22.765z" clip-rule="evenodd"/>
    <path stroke="url(#b)" stroke-linecap="round" stroke-linejoin="round" d="M33.355 27.016c-.574-2.23-1.423-4.635-2.545-7.111a55.39 55.39 0 0 0-4.694-8.403 46.941 46.941 0 0 0-2.6-3.463 35.626 35.626 0 0 0-2.108-2.364C17.314 1.471 13.297-.482 10.813.991c-1.936 1.15-2.586 4.177-2.073 8.184"/>
    <path stroke="url(#c)" stroke-linecap="round" stroke-linejoin="round" d="M9.725 12.607c.568 2.23 1.424 4.63 2.54 7.105v.007a55.453 55.453 0 0 0 4.702 8.397 49.096 49.096 0 0 0 2.594 3.466c.705.854 1.417 1.65 2.122 2.363 4.093 4.206 8.11 6.16 10.589 4.685 1.937-1.15 2.58-4.177 2.067-8.185"/>
    <path fill-rule="evenodd" stroke="url(#d)" stroke-linecap="round" stroke-linejoin="round" d="M22.117 28.744C10.18 28.744.504 24.874.504 20.1c0-4.774 9.676-8.645 21.613-8.645s21.613 3.87 21.613 8.645c0 4.775-9.676 8.645-21.613 8.645z" clip-rule="evenodd"/>
    <path fill="url(#e)" d="M21.921 18.37a1.246 1.246 0 1 0 0 2.492 1.246 1.246 0 0 0 0-2.491z"/>
    <mask id="m" width="21.148" height="7.049" x="36.693" y="32.725" fill="#000" maskUnits="userSpaceOnUse">
        <path fill="#fff" d="M36.693 32.725h21.148v7.049H36.693z"/>
        <path d="M38.339 35.17l.021.496c.302-.379.696-.569 1.183-.569.834 0 1.255.471 1.263 1.413v2.609h-.676v-2.613c-.002-.285-.068-.495-.197-.632-.126-.136-.325-.204-.595-.204a.975.975 0 0 0-.576.175 1.19 1.19 0 0 0-.387.46v2.814H37.7V35.17h.639zM44.261 39.119c-.039-.078-.07-.217-.094-.416a1.506 1.506 0 0 1-1.124.489c-.39 0-.71-.11-.96-.329a1.076 1.076 0 0 1-.372-.839c0-.411.155-.73.467-.956.314-.229.754-.343 1.32-.343h.658v-.31c0-.236-.07-.424-.212-.562-.141-.142-.35-.212-.624-.212-.24 0-.443.06-.606.182-.163.122-.244.27-.244.442h-.68a.93.93 0 0 1 .209-.57c.141-.184.33-.33.57-.437.24-.107.504-.16.791-.16.455 0 .811.114 1.07.342.257.227.391.54.4.938v1.818c0 .362.047.65.14.864v.059h-.709zm-1.12-.515c.212 0 .413-.054.602-.164a.993.993 0 0 0 .413-.427v-.81h-.53c-.827 0-1.24.242-1.24.726 0 .212.07.377.211.496.142.12.323.18.544.18zM46.805 34.214v.956h.737v.522h-.737v2.449c0 .158.033.277.099.357.065.078.177.117.335.117.078 0 .185-.014.322-.044v.548c-.178.048-.35.073-.519.073-.301 0-.529-.091-.682-.274-.153-.182-.23-.441-.23-.777v-2.449h-.719v-.522h.719v-.956h.675zM49.068 39.119h-.675V35.17h.675v3.949zm-.73-4.996c0-.11.033-.202.098-.277.069-.076.168-.114.3-.114.131 0 .23.038.299.114a.399.399 0 0 1 .102.277c0 .11-.034.2-.102.274-.068.072-.168.109-.3.109-.13 0-.23-.037-.299-.11a.394.394 0 0 1-.098-.273zM51.454 38.203l.978-3.033h.69l-1.416 3.949h-.514l-1.43-3.949h.689l1.003 3.033zM55.36 39.192c-.536 0-.971-.175-1.307-.526-.336-.352-.504-.823-.504-1.412v-.124c0-.392.074-.74.223-1.047.15-.31.36-.55.628-.723a1.58 1.58 0 0 1 .875-.263c.514 0 .913.17 1.197.508.285.338.427.822.427 1.452v.28h-2.675c.01.39.123.705.34.946.219.239.496.358.832.358.238 0 .44-.049.605-.146.166-.097.31-.226.435-.387l.412.321c-.33.509-.827.763-1.489.763zm-.085-3.54c-.272 0-.5.1-.686.3-.185.196-.299.474-.343.831h1.978v-.05c-.02-.344-.112-.61-.277-.796-.166-.19-.39-.285-.672-.285z"/>
    </mask>
    <path fill="url(#f)" d="M38.339 35.17l.021.496c.302-.379.696-.569 1.183-.569.834 0 1.255.471 1.263 1.413v2.609h-.676v-2.613c-.002-.285-.068-.495-.197-.632-.126-.136-.325-.204-.595-.204a.975.975 0 0 0-.576.175 1.19 1.19 0 0 0-.387.46v2.814H37.7V35.17h.639z"/>
    <path fill="url(#g)" d="M44.261 39.119c-.039-.078-.07-.217-.094-.416a1.506 1.506 0 0 1-1.124.489c-.39 0-.71-.11-.96-.329a1.076 1.076 0 0 1-.372-.839c0-.411.155-.73.467-.956.314-.229.754-.343 1.32-.343h.658v-.31c0-.236-.07-.424-.212-.562-.141-.142-.35-.212-.624-.212-.24 0-.443.06-.606.182-.163.122-.244.27-.244.442h-.68a.93.93 0 0 1 .209-.57c.141-.184.33-.33.57-.437.24-.107.504-.16.791-.16.455 0 .811.114 1.07.342.257.227.391.54.4.938v1.818c0 .362.047.65.14.864v.059h-.709zm-1.12-.515c.212 0 .413-.054.602-.164a.993.993 0 0 0 .413-.427v-.81h-.53c-.827 0-1.24.242-1.24.726 0 .212.07.377.211.496.142.12.323.18.544.18z"/>
    <path fill="url(#h)" d="M46.805 34.214v.956h.737v.522h-.737v2.449c0 .158.033.277.099.357.065.078.177.117.335.117.078 0 .185-.014.322-.044v.548c-.178.048-.35.073-.519.073-.301 0-.529-.091-.682-.274-.153-.182-.23-.441-.23-.777v-2.449h-.719v-.522h.719v-.956h.675z"/>
    <path fill="url(#i)" d="M49.068 39.119h-.675V35.17h.675v3.949zm-.73-4.996c0-.11.033-.202.098-.277.069-.076.168-.114.3-.114.131 0 .23.038.299.114a.399.399 0 0 1 .102.277c0 .11-.034.2-.102.274-.068.072-.168.109-.3.109-.13 0-.23-.037-.299-.11a.394.394 0 0 1-.098-.273z"/>
    <path fill="url(#j)" d="M51.454 38.203l.978-3.033h.69l-1.416 3.949h-.514l-1.43-3.949h.689l1.003 3.033z"/>
    <path fill="url(#k)" d="M55.36 39.192c-.536 0-.971-.175-1.307-.526-.336-.352-.504-.823-.504-1.412v-.124c0-.392.074-.74.223-1.047.15-.31.36-.55.628-.723a1.58 1.58 0 0 1 .875-.263c.514 0 .913.17 1.197.508.285.338.427.822.427 1.452v.28h-2.675c.01.39.123.705.34.946.219.239.496.358.832.358.238 0 .44-.049.605-.146.166-.097.31-.226.435-.387l.412.321c-.33.509-.827.763-1.489.763zm-.085-3.54c-.272 0-.5.1-.686.3-.185.196-.299.474-.343.831h1.978v-.05c-.02-.344-.112-.61-.277-.796-.166-.19-.39-.285-.672-.285z"/>
    <path stroke="url(#l)" stroke-width=".2" d="M38.339 35.17l.021.496c.302-.379.696-.569 1.183-.569.834 0 1.255.471 1.263 1.413v2.609h-.676v-2.613c-.002-.285-.068-.495-.197-.632-.126-.136-.325-.204-.595-.204a.975.975 0 0 0-.576.175 1.19 1.19 0 0 0-.387.46v2.814H37.7V35.17h.639z" mask="url(#m)"/>
    <path stroke="url(#n)" stroke-width=".2" d="M44.261 39.119c-.039-.078-.07-.217-.094-.416a1.506 1.506 0 0 1-1.124.489c-.39 0-.71-.11-.96-.329a1.076 1.076 0 0 1-.372-.839c0-.411.155-.73.467-.956.314-.229.754-.343 1.32-.343h.658v-.31c0-.236-.07-.424-.212-.562-.141-.142-.35-.212-.624-.212-.24 0-.443.06-.606.182-.163.122-.244.27-.244.442h-.68a.93.93 0 0 1 .209-.57c.141-.184.33-.33.57-.437.24-.107.504-.16.791-.16.455 0 .811.114 1.07.342.257.227.391.54.4.938v1.818c0 .362.047.65.14.864v.059h-.709zm-1.12-.515c.212 0 .413-.054.602-.164a.993.993 0 0 0 .413-.427v-.81h-.53c-.827 0-1.24.242-1.24.726 0 .212.07.377.211.496.142.12.323.18.544.18z" mask="url(#m)"/>
    <path stroke="url(#o)" stroke-width=".2" d="M46.805 34.214v.956h.737v.522h-.737v2.449c0 .158.033.277.099.357.065.078.177.117.335.117.078 0 .185-.014.322-.044v.548c-.178.048-.35.073-.519.073-.301 0-.529-.091-.682-.274-.153-.182-.23-.441-.23-.777v-2.449h-.719v-.522h.719v-.956h.675z" mask="url(#m)"/>
    <path stroke="url(#p)" stroke-width=".2" d="M49.068 39.119h-.675V35.17h.675v3.949zm-.73-4.996c0-.11.033-.202.098-.277.069-.076.168-.114.3-.114.131 0 .23.038.299.114a.399.399 0 0 1 .102.277c0 .11-.034.2-.102.274-.068.072-.168.109-.3.109-.13 0-.23-.037-.299-.11a.394.394 0 0 1-.098-.273z" mask="url(#m)"/>
    <path stroke="url(#q)" stroke-width=".2" d="M51.454 38.203l.978-3.033h.69l-1.416 3.949h-.514l-1.43-3.949h.689l1.003 3.033z" mask="url(#m)"/>
    <path stroke="url(#r)" stroke-width=".2" d="M55.36 39.192c-.536 0-.971-.175-1.307-.526-.336-.352-.504-.823-.504-1.412v-.124c0-.392.074-.74.223-1.047.15-.31.36-.55.628-.723a1.58 1.58 0 0 1 .875-.263c.514 0 .913.17 1.197.508.285.338.427.822.427 1.452v.28h-2.675c.01.39.123.705.34.946.219.239.496.358.832.358.238 0 .44-.049.605-.146.166-.097.31-.226.435-.387l.412.321c-.33.509-.827.763-1.489.763zm-.085-3.54c-.272 0-.5.1-.686.3-.185.196-.299.474-.343.831h1.978v-.05c-.02-.344-.112-.61-.277-.796-.166-.19-.39-.285-.672-.285z" mask="url(#m)"/>
    <defs>
        <linearGradient id="a" x1="34.508" x2="34.508" y1="38.543" y2=".504" gradientUnits="userSpaceOnUse">
            <stop stop-color="#3E9679"/>
            <stop offset=".523" stop-color="#4DA567"/>
            <stop offset="1" stop-color="#58B25B"/>
        </linearGradient>
        <linearGradient id="b" x1="33.355" x2="33.355" y1="27.016" y2=".504" gradientUnits="userSpaceOnUse">
            <stop stop-color="#3E9679"/>
            <stop offset=".523" stop-color="#4DA567"/>
            <stop offset="1" stop-color="#58B25B"/>
        </linearGradient>
        <linearGradient id="c" x1="34.508" x2="34.508" y1="39.119" y2="12.607" gradientUnits="userSpaceOnUse">
            <stop stop-color="#3E9679"/>
            <stop offset=".523" stop-color="#4DA567"/>
            <stop offset="1" stop-color="#58B25B"/>
        </linearGradient>
        <linearGradient id="d" x1="43.73" x2="43.73" y1="28.744" y2="11.454" gradientUnits="userSpaceOnUse">
            <stop stop-color="#3E9679"/>
            <stop offset=".523" stop-color="#4DA567"/>
            <stop offset="1" stop-color="#58B25B"/>
        </linearGradient>
        <linearGradient id="e" x1="23.167" x2="23.167" y1="20.862" y2="18.371" gradientUnits="userSpaceOnUse">
            <stop stop-color="#3E9679"/>
            <stop offset=".523" stop-color="#4DA567"/>
            <stop offset="1" stop-color="#58B25B"/>
        </linearGradient>
        <linearGradient id="f" x1="56.899" x2="56.899" y1="39.192" y2="33.732" gradientUnits="userSpaceOnUse">
            <stop stop-color="#3E9679"/>
            <stop offset=".523" stop-color="#4DA567"/>
            <stop offset="1" stop-color="#58B25B"/>
        </linearGradient>
        <linearGradient id="g" x1="56.899" x2="56.899" y1="39.192" y2="33.732" gradientUnits="userSpaceOnUse">
            <stop stop-color="#3E9679"/>
            <stop offset=".523" stop-color="#4DA567"/>
            <stop offset="1" stop-color="#58B25B"/>
        </linearGradient>
        <linearGradient id="h" x1="56.899" x2="56.899" y1="39.192" y2="33.732" gradientUnits="userSpaceOnUse">
            <stop stop-color="#3E9679"/>
            <stop offset=".523" stop-color="#4DA567"/>
            <stop offset="1" stop-color="#58B25B"/>
        </linearGradient>
        <linearGradient id="i" x1="56.899" x2="56.899" y1="39.192" y2="33.732" gradientUnits="userSpaceOnUse">
            <stop stop-color="#3E9679"/>
            <stop offset=".523" stop-color="#4DA567"/>
            <stop offset="1" stop-color="#58B25B"/>
        </linearGradient>
        <linearGradient id="j" x1="56.899" x2="56.899" y1="39.192" y2="33.732" gradientUnits="userSpaceOnUse">
            <stop stop-color="#3E9679"/>
            <stop offset=".523" stop-color="#4DA567"/>
            <stop offset="1" stop-color="#58B25B"/>
        </linearGradient>
        <linearGradient id="k" x1="56.899" x2="56.899" y1="39.192" y2="33.732" gradientUnits="userSpaceOnUse">
            <stop stop-color="#3E9679"/>
            <stop offset=".523" stop-color="#4DA567"/>
            <stop offset="1" stop-color="#58B25B"/>
        </linearGradient>
        <linearGradient id="l" x1="56.899" x2="56.899" y1="39.192" y2="33.732" gradientUnits="userSpaceOnUse">
            <stop stop-color="#3E9679"/>
            <stop offset=".523" stop-color="#4DA567"/>
            <stop offset="1" stop-color="#58B25B"/>
        </linearGradient>
        <linearGradient id="n" x1="56.899" x2="56.899" y1="39.192" y2="33.732" gradientUnits="userSpaceOnUse">
            <stop stop-color="#3E9679"/>
            <stop offset=".523" stop-color="#4DA567"/>
            <stop offset="1" stop-color="#58B25B"/>
        </linearGradient>
        <linearGradient id="o" x1="56.899" x2="56.899" y1="39.192" y2="33.732" gradientUnits="userSpaceOnUse">
            <stop stop-color="#3E9679"/>
            <stop offset=".523" stop-color="#4DA567"/>
            <stop offset="1" stop-color="#58B25B"/>
        </linearGradient>
        <linearGradient id="p" x1="56.899" x2="56.899" y1="39.192" y2="33.732" gradientUnits="userSpaceOnUse">
            <stop stop-color="#3E9679"/>
            <stop offset=".523" stop-color="#4DA567"/>
            <stop offset="1" stop-color="#58B25B"/>
        </linearGradient>
        <linearGradient id="q" x1="56.899" x2="56.899" y1="39.192" y2="33.732" gradientUnits="userSpaceOnUse">
            <stop stop-color="#3E9679"/>
            <stop offset=".523" stop-color="#4DA567"/>
            <stop offset="1" stop-color="#58B25B"/>
        </linearGradient>
        <linearGradient id="r" x1="56.899" x2="56.899" y1="39.192" y2="33.732" gradientUnits="userSpaceOnUse">
            <stop stop-color="#3E9679"/>
            <stop offset=".523" stop-color="#4DA567"/>
            <stop offset="1" stop-color="#58B25B"/>
        </linearGradient>
    </defs>
</svg>
