<svg width="262" height="234" xmlns="http://www.w3.org/2000/svg"><defs><linearGradient x1="50%" y1="100%" x2="50%" y2="0%" id="a"><stop stop-color="#3E9679" offset="0%"/><stop stop-color="#4DA567" offset="52.267%"/><stop stop-color="#58B25B" offset="100%"/></linearGradient></defs><path d="M76.866 3c-6.914.015-13.682 3.94-17.162 9.927L5.57 106.963c-3.427 6.003-3.427 13.85 0 19.853l54.134 94.037c3.48 5.987 10.248 9.913 17.162 9.927h108.268c6.914-.015 13.682-3.94 17.162-9.927l54.134-94.037c3.427-6.003 3.426-13.85 0-19.853l-54.134-94.036c-3.48-5.988-10.248-9.913-17.162-9.927H76.866zm1.437 55.013h18.674a2.462 2.462 0 0 1 2.042 1.212l31.679 56.452c.106.186.307.186.602 0l31.603-56.452a2.47 2.47 0 0 1 2.117-1.212h18.675c1.653.014 2.892 2.097 2.117 3.561l-30.923 55.316 30.923 55.24c.848 1.472-.42 3.651-2.117 3.637H165.02a2.47 2.47 0 0 1-2.117-1.288L131.3 118.026c-.16-.279-.443-.279-.602 0l-31.68 56.453a2.468 2.468 0 0 1-2.04 1.288H78.302c-1.697.015-2.965-2.165-2.117-3.637l30.923-55.24-30.923-55.316c-.741-1.336.163-3.276 1.663-3.561.149-.015.305-.015.454 0z" stroke="url(#a)" stroke-width="5" fill="none" fill-rule="evenodd"/></svg>